<svg width="27" height="27" viewBox="0 0 27 27" fill="none" xmlns="http://www.w3.org/2000/svg">
<path d="M22.667 1.76611H4.66699C3.01014 1.76611 1.66699 3.10926 1.66699 4.76611V22.7661C1.66699 24.423 3.01014 25.7661 4.66699 25.7661H22.667C24.3238 25.7661 25.667 24.423 25.667 22.7661V4.76611C25.667 3.10926 24.3238 1.76611 22.667 1.76611Z" stroke="#2E96FF" stroke-width="2" stroke-linecap="round" stroke-linejoin="round"/>
<path d="M7.66699 12.2661V19.7661M7.66699 7.76611V7.78111M13.667 19.7661V12.2661M19.667 19.7661V15.2661C19.667 14.4705 19.3509 13.7074 18.7883 13.1448C18.2257 12.5822 17.4626 12.2661 16.667 12.2661C15.8713 12.2661 15.1083 12.5822 14.5457 13.1448C13.9831 13.7074 13.667 14.4705 13.667 15.2661" stroke="#2E96FF" stroke-width="2" stroke-linecap="round" stroke-linejoin="round"/>
</svg>
