<svg width="40" height="40" viewBox="0 0 40 40" fill="none" xmlns="http://www.w3.org/2000/svg">
<path d="M29.9993 6.66602H9.99935C8.1584 6.66602 6.66602 8.1584 6.66602 9.99935V29.9993C6.66602 31.8403 8.1584 33.3327 9.99935 33.3327H29.9993C31.8403 33.3327 33.3327 31.8403 33.3327 29.9993V9.99935C33.3327 8.1584 31.8403 6.66602 29.9993 6.66602Z" stroke="black" stroke-width="2" stroke-linecap="round" stroke-linejoin="round"/>
<path d="M13.332 18.332V26.6654M13.332 13.332V13.3487M19.9987 26.6654V18.332M26.6654 26.6654V21.6654C26.6654 20.7813 26.3142 19.9335 25.6891 19.3083C25.0639 18.6832 24.2161 18.332 23.332 18.332C22.448 18.332 21.6001 18.6832 20.975 19.3083C20.3499 19.9335 19.9987 20.7813 19.9987 21.6654" stroke="black" stroke-width="2" stroke-linecap="round" stroke-linejoin="round"/>
</svg>
