<svg width="24" height="25" viewBox="0 0 24 25" fill="none" xmlns="http://www.w3.org/2000/svg">
<path d="M18 8.09961H10C8.89543 8.09961 8 8.99504 8 10.0996V18.0996C8 19.2042 8.89543 20.0996 10 20.0996H18C19.1046 20.0996 20 19.2042 20 18.0996V10.0996C20 8.99504 19.1046 8.09961 18 8.09961Z" stroke="#2E96FF" stroke-width="2" stroke-linecap="round" stroke-linejoin="round"/>
<path d="M16 8.09961V6.09961C16 5.56918 15.7893 5.06047 15.4142 4.6854C15.0391 4.31032 14.5304 4.09961 14 4.09961H6C5.46957 4.09961 4.96086 4.31032 4.58579 4.6854C4.21071 5.06047 4 5.56918 4 6.09961V14.0996C4 14.63 4.21071 15.1387 4.58579 15.5138C4.96086 15.8889 5.46957 16.0996 6 16.0996H8" stroke="#2E96FF" stroke-width="2" stroke-linecap="round" stroke-linejoin="round"/>
</svg>
