<svg width="24" height="24" viewBox="0 0 24 24" fill="none" xmlns="http://www.w3.org/2000/svg">
<path d="M12.0135 22.4727C19.0245 22.4727 22.5278 17.7719 22.5278 11.973C22.5278 6.17344 19.0245 1.47266 12.0135 1.47266C5.00325 1.47266 1.5 6.17419 1.5 11.973C1.5 17.7719 5.00325 22.4727 12.0135 22.4727Z" fill="#FFB02E"/>
<path d="M11.2205 12.4326C11.227 12.8525 11.1498 13.2695 10.9933 13.6593C10.8369 14.0492 10.6044 14.404 10.3093 14.7033C10.0143 15.0025 9.66254 15.2401 9.27465 15.4023C8.88676 15.5645 8.47043 15.6481 8.04991 15.6481C7.62938 15.6481 7.21306 15.5645 6.82516 15.4023C6.43727 15.2401 6.08556 15.0025 5.79049 14.7033C5.49543 14.404 5.26292 14.0492 5.10648 13.6593C4.95005 13.2695 4.87281 12.8525 4.87928 12.4326C4.89208 11.6012 5.23176 10.8082 5.82498 10.2248C6.41819 9.64145 7.21735 9.31445 8.04991 9.31445C8.88246 9.31445 9.68162 9.64145 10.2748 10.2248C10.868 10.8082 11.2077 11.6012 11.2205 12.4326ZM12.7498 12.4326C12.7433 12.8525 12.8205 13.2695 12.977 13.6593C13.1334 14.0492 13.3659 14.404 13.661 14.7033C13.9561 15.0025 14.3078 15.2401 14.6957 15.4023C15.0836 15.5645 15.4999 15.6481 15.9204 15.6481C16.3409 15.6481 16.7573 15.5645 17.1452 15.4023C17.533 15.2401 17.8848 15.0025 18.1798 14.7033C18.4749 14.404 18.7074 14.0492 18.8638 13.6593C19.0203 13.2695 19.0975 12.8525 19.091 12.4326C19.0782 11.6012 18.7385 10.8082 18.1453 10.2248C17.5521 9.64145 16.753 9.31445 15.9204 9.31445C15.0879 9.31445 14.2887 9.64145 13.6955 10.2248C13.1023 10.8082 12.7626 11.6012 12.7498 12.4326Z" fill="white"/>
<path d="M7.51366 5.53579L7.51141 5.54777L7.49791 5.60395C7.41257 5.92679 7.26619 6.23035 7.06666 6.49827C6.70966 6.97389 6.06616 7.47348 4.87891 7.47348C4.77945 7.47348 4.68407 7.51293 4.61374 7.58317C4.54342 7.6534 4.50391 7.74866 4.50391 7.84798C4.50391 7.94731 4.54342 8.04256 4.61374 8.1128C4.68407 8.18303 4.77945 8.22249 4.87891 8.22249C6.32116 8.22249 7.17991 7.59631 7.66666 6.94767C7.92638 6.59978 8.11636 6.20506 8.22616 5.78521C8.2354 5.74798 8.24366 5.71052 8.25091 5.67286L8.25241 5.66462V5.66012L8.25316 5.65937C8.26699 5.56259 8.24237 5.46424 8.18457 5.38534C8.12677 5.30644 8.04036 5.25324 7.94381 5.2371C7.84726 5.22096 7.74822 5.24317 7.66784 5.29898C7.58747 5.35479 7.53213 5.43978 7.51366 5.53579ZM16.5144 5.53579L16.5167 5.54777L16.5302 5.60395C16.6155 5.92678 16.7619 6.23034 16.9614 6.49827C17.3184 6.97389 17.9619 7.47348 19.1492 7.47348C19.2486 7.47348 19.344 7.51293 19.4143 7.58317C19.4846 7.6534 19.5242 7.74866 19.5242 7.84798C19.5242 7.94731 19.4846 8.04256 19.4143 8.1128C19.344 8.18303 19.2486 8.22249 19.1492 8.22249C17.7069 8.22249 16.8489 7.59631 16.3614 6.94767C16.1019 6.59976 15.9122 6.20504 15.8027 5.78521C15.7931 5.74801 15.7846 5.71054 15.7772 5.67286L15.7757 5.66462V5.66012L15.7749 5.65937C15.7601 5.56219 15.7841 5.46309 15.8419 5.38345C15.8996 5.30382 15.9863 5.25003 16.0834 5.23371C16.1804 5.21739 16.28 5.23984 16.3607 5.29622C16.4413 5.35259 16.4965 5.43837 16.5144 5.53504V5.53579ZM10.1372 16.8061C10.0258 16.7097 9.88097 16.6608 9.73386 16.67C9.58676 16.6791 9.44912 16.7455 9.35055 16.855C9.25198 16.9644 9.20036 17.1081 9.20678 17.2551C9.21321 17.4022 9.27717 17.5408 9.38491 17.6413C10.0794 18.266 11.0724 18.5446 12.0144 18.5446C12.9549 18.5446 13.9494 18.266 14.6439 17.6413C14.7548 17.5416 14.8215 17.4019 14.8293 17.2531C14.8371 17.1043 14.7854 16.9585 14.6855 16.8477C14.6361 16.7929 14.5763 16.7483 14.5096 16.7165C14.4429 16.6848 14.3706 16.6664 14.2968 16.6626C14.1478 16.6548 14.0018 16.7064 13.8909 16.8061C13.4589 17.1941 12.7629 17.4218 12.0144 17.4218C11.2652 17.4218 10.5692 17.1941 10.1372 16.8061ZM8.33641 14.9718C9.07268 14.9718 9.7788 14.6797 10.2994 14.1598C10.82 13.6398 11.1125 12.9347 11.1125 12.1994C11.1125 11.4641 10.82 10.7589 10.2994 10.2389C9.7788 9.71899 9.07268 9.4269 8.33641 9.4269C7.60013 9.4269 6.89401 9.71899 6.37339 10.2389C5.85276 10.7589 5.56028 11.4641 5.56028 12.1994C5.56028 12.9347 5.85276 13.6398 6.37339 14.1598C6.89401 14.6797 7.60013 14.9718 8.33641 14.9718ZM10.2594 10.8216C10.6067 11.3219 10.5557 11.9571 10.1462 12.2402C9.73666 12.5233 9.12316 12.3465 8.77666 11.8462C8.42941 11.3459 8.48041 10.7099 8.88991 10.4268C9.29941 10.1444 9.91291 10.3205 10.2594 10.8216ZM12.8582 12.1997C12.8582 12.5638 12.93 12.9242 13.0694 13.2606C13.2089 13.5969 13.4134 13.9025 13.6712 14.1599C13.9289 14.4173 14.2349 14.6215 14.5717 14.7608C14.9084 14.9001 15.2694 14.9718 15.6339 14.9718C15.9984 14.9718 16.3594 14.9001 16.6961 14.7608C17.0329 14.6215 17.3389 14.4173 17.5967 14.1599C17.8544 13.9025 18.0589 13.5969 18.1984 13.2606C18.3379 12.9242 18.4097 12.5638 18.4097 12.1997C18.4097 11.4645 18.1172 10.7594 17.5967 10.2396C17.0761 9.7197 16.3701 9.42764 15.6339 9.42764C14.8977 9.42764 14.1917 9.7197 13.6712 10.2396C13.1506 10.7594 12.8582 11.4645 12.8582 12.1997ZM17.2577 12.2402C16.8482 12.5233 16.2347 12.3465 15.8882 11.8462C15.5409 11.3459 15.5919 10.7099 16.0014 10.4268C16.4117 10.1444 17.0244 10.3205 17.3717 10.8216C17.7182 11.3219 17.6672 11.9571 17.2577 12.2402Z" fill="#402A32"/>
<path d="M10.658 14.2344C10.3526 14.6846 9.94123 15.0531 9.46007 15.3077C8.97891 15.5623 8.44258 15.6953 7.89805 15.6949C7.55905 15.6949 7.2313 15.6448 6.9223 15.5511C6.90597 15.5461 6.8887 15.545 6.87186 15.5478C6.85502 15.5506 6.83906 15.5573 6.82524 15.5673C6.81142 15.5774 6.80013 15.5904 6.79224 15.6056C6.78435 15.6207 6.78009 15.6374 6.7798 15.6545C6.7798 15.8739 6.69252 16.0843 6.53717 16.2395C6.38182 16.3946 6.17112 16.4818 5.95142 16.4818C5.73172 16.4818 5.52102 16.3946 5.36567 16.2395C5.21032 16.0843 5.12305 15.8739 5.12305 15.6545V14.9834C5.12305 14.7847 5.20206 14.5942 5.34272 14.4538C5.48337 14.3133 5.67413 14.2344 5.87305 14.2344H10.658ZM13.3123 14.2344C13.6178 14.6846 14.0291 15.0531 14.5103 15.3077C14.9914 15.5623 15.5278 15.6953 16.0723 15.6949C16.4113 15.6949 16.7398 15.6448 17.0488 15.5511C17.1185 15.5294 17.1913 15.5811 17.1913 15.6545C17.1913 15.8738 17.2785 16.0841 17.4338 16.2392C17.5891 16.3943 17.7997 16.4814 18.0193 16.4814C18.2389 16.4814 18.4495 16.3943 18.6048 16.2392C18.7601 16.0841 18.8473 15.8738 18.8473 15.6545V14.9834C18.8473 14.7847 18.7683 14.5942 18.6276 14.4538C18.487 14.3133 18.2962 14.2344 18.0973 14.2344H13.3123Z" fill="#3F5FFF"/>
</svg>
