<svg width="24" height="24" viewBox="0 0 24 24" fill="none" xmlns="http://www.w3.org/2000/svg">
<path d="M11.9992 22.4985C18.9998 22.4985 22.4985 17.7975 22.4985 11.9985C22.4985 6.201 18.9998 1.5 11.9985 1.5C4.99875 1.5 1.5 6.201 1.5 11.9992C1.5 17.7975 4.998 22.4985 11.9992 22.4985Z" fill="#FFB02E"/>
<path d="M8.25 21.9728V6H5.625C5.32663 6 5.04048 6.11853 4.8295 6.3295C4.61853 6.54048 4.5 6.82663 4.5 7.125V19.8075C5.49975 20.7675 6.75 21.5123 8.25 21.9728ZM19.5 19.8053C18.5002 20.7667 17.25 21.5115 15.75 21.9728V6H18.375C18.6734 6 18.9595 6.11853 19.1705 6.3295C19.3815 6.54048 19.5 6.82663 19.5 7.125V19.8053Z" fill="#5092FF"/>
<path d="M5.21192 6.987C5.24792 6.87825 5.53817 6.375 6.37517 6.375C7.21217 6.375 7.50242 6.8775 7.53842 6.987C7.60128 7.17577 7.73655 7.33183 7.91447 7.42087C8.0924 7.5099 8.2984 7.52461 8.48717 7.46175C8.67594 7.39889 8.83201 7.26362 8.92104 7.0857C9.01007 6.90777 9.02478 6.70177 8.96192 6.513C8.74817 5.87175 7.93892 4.875 6.37517 4.875C4.81217 4.875 4.00217 5.8725 3.78842 6.513C3.72557 6.70177 3.74027 6.90777 3.8293 7.0857C3.91834 7.26362 4.0744 7.39889 4.26317 7.46175C4.45194 7.52461 4.65795 7.5099 4.83587 7.42087C5.0138 7.33183 5.14907 7.17577 5.21192 6.987ZM16.4619 6.987C16.4979 6.87825 16.7882 6.375 17.6252 6.375C18.4622 6.375 18.7524 6.8775 18.7884 6.987C18.8513 7.17577 18.9865 7.33183 19.1645 7.42087C19.3424 7.5099 19.5484 7.52461 19.7372 7.46175C19.9259 7.39889 20.082 7.26362 20.171 7.0857C20.2601 6.90777 20.2748 6.70177 20.2119 6.513C19.9982 5.87175 19.1882 4.875 17.6252 4.875C16.0622 4.875 15.2522 5.8725 15.0384 6.513C15.0073 6.60647 14.9949 6.70515 15.0019 6.80342C15.0089 6.90168 15.0352 6.9976 15.0793 7.0857C15.1683 7.26362 15.3244 7.39889 15.5132 7.46175C15.7019 7.52461 15.9079 7.5099 16.0859 7.42087C16.2638 7.33183 16.3991 7.17577 16.4619 6.987Z" fill="#402A32"/>
<path d="M9 11.25C9 10.4544 9.31607 9.69129 9.87868 9.12868C10.4413 8.56607 11.2044 8.25 12 8.25C12.7956 8.25 13.5587 8.56607 14.1213 9.12868C14.6839 9.69129 15 10.4544 15 11.25V12.75C15 13.5456 14.6839 14.3087 14.1213 14.8713C13.5587 15.4339 12.7956 15.75 12 15.75C11.2044 15.75 10.4413 15.4339 9.87868 14.8713C9.31607 14.3087 9 13.5456 9 12.75V11.25Z" fill="#BB1D80"/>
</svg>
