<svg width="24" height="24" viewBox="0 0 24 24" fill="none" xmlns="http://www.w3.org/2000/svg">
<path d="M13.6723 21.0215H11.0848C10.8373 21.0215 10.6348 21.224 10.6348 21.4715V21.5615C10.6348 22.079 11.0548 22.499 11.5723 22.499H13.1923C13.7098 22.499 14.1298 22.079 14.1298 21.5615V21.4715C14.1265 21.3519 14.077 21.2382 13.9917 21.1543C13.9064 21.0704 13.7919 21.0228 13.6723 21.0215Z" fill="#D3883E"/>
<path d="M14.4075 3.21589V1.84339C14.4075 1.52839 14.0175 1.37839 13.8075 1.61839L12.615 2.98339C12.48 3.14089 12.24 3.14089 12.0975 2.98339L10.905 1.61839C10.8592 1.56581 10.7985 1.52846 10.7309 1.51135C10.6634 1.49425 10.5922 1.49819 10.5269 1.52267C10.4616 1.54714 10.4054 1.59098 10.3658 1.6483C10.3261 1.70562 10.3049 1.77369 10.305 1.84339V3.22339C10.305 4.07839 9.7875 4.85089 9 5.18839C5.9175 6.49339 3.75 9.54589 3.75 13.1084C3.75 17.6684 7.5525 21.5909 12.1125 21.7184C16.98 21.8534 20.9625 17.9459 20.9625 13.1159C20.9625 9.55339 18.795 6.49339 15.7125 5.18839C15.3264 5.0226 14.9972 4.74756 14.7653 4.39711C14.5335 4.04667 14.4091 3.63609 14.4075 3.21589Z" fill="#F3AD61"/>
<path d="M7.72492 18.9877C8.95492 20.7127 10.6049 21.6577 12.3599 21.6577C14.1149 21.6577 15.7574 20.7052 16.9949 18.9877C18.2024 17.3002 18.8624 15.0652 18.8624 12.6952C18.8624 9.69523 17.7824 6.90523 15.9749 5.24023L15.5099 5.74273C17.1749 7.28023 18.1724 9.88273 18.1724 12.6952C18.1724 16.6777 16.1879 20.0107 13.5569 20.7982C14.5649 19.2885 15.0997 15.9127 15.1049 12.6877C15.1049 9.86773 14.7299 7.28773 14.0774 5.60773L13.5149 5.82523C14.1299 7.41523 14.4974 9.98023 14.4974 12.6877C14.4974 14.9677 14.2424 17.0977 13.7924 18.7027C13.3762 20.1727 12.8864 20.8252 12.5189 20.9722C12.413 20.9763 12.3069 20.9763 12.2009 20.9722C11.8334 20.8252 11.3437 20.1735 10.9274 18.7027C10.4699 17.0977 10.2224 14.9602 10.2224 12.6877C10.2224 9.97273 10.5899 7.40773 11.2049 5.82523L10.6424 5.60773C9.98992 7.28023 9.61492 9.86773 9.61492 12.6877C9.61492 15.9127 10.1527 19.2877 11.1622 20.7982C8.53117 20.0092 6.54742 16.677 6.54742 12.6952C6.54742 9.88273 7.54492 7.28023 9.20992 5.74273L8.74492 5.24023C6.93742 6.90523 5.85742 9.69523 5.85742 12.6952C5.85742 15.0652 6.51742 17.3002 7.72492 18.9877Z" fill="#E19747"/>
</svg>
