<svg width="24" height="24" viewBox="0 0 24 24" fill="none" xmlns="http://www.w3.org/2000/svg">
<path d="M13.0888 5.05405C13.177 4.88259 13.2208 4.69179 13.2163 4.49905C13.2138 4.2699 13.1462 4.04619 13.0213 3.85405C12.8999 3.66628 12.8348 3.44765 12.8338 3.22405C12.8338 2.91375 12.7105 2.61615 12.4911 2.39673C12.2717 2.17732 11.9741 2.05405 11.6638 2.05405C11.6329 2.05377 11.6025 2.04614 11.5751 2.03179C11.5477 2.01745 11.5241 1.9968 11.5063 1.97155C11.3971 1.82126 11.2538 1.69895 11.0883 1.61462C10.9227 1.53029 10.7396 1.48633 10.5538 1.48633C10.368 1.48633 10.1849 1.53029 10.0193 1.61462C9.85376 1.69895 9.71052 1.82126 9.6013 1.97155C9.58346 1.9968 9.55988 2.01745 9.5325 2.03179C9.50511 2.04614 9.47471 2.05377 9.4438 2.05405H9.30129C8.84638 2.09177 8.42239 2.29952 8.11381 2.6359C7.80523 2.97228 7.63473 3.41258 7.6363 3.86905V4.21405C7.61982 4.33631 7.56412 4.44992 7.47757 4.53782C7.39102 4.62572 7.27828 4.68318 7.1563 4.70155C6.64769 4.78669 6.18278 5.04118 5.83698 5.42373C5.49119 5.80629 5.2848 6.29446 5.2513 6.80905C5.24792 6.83645 5.24792 6.86415 5.2513 6.89155C5.20284 7.50581 5.3486 8.11977 5.66799 8.64669C5.98737 9.17362 6.46424 9.58689 7.03123 9.8281C7.59822 10.0693 8.22666 10.1263 8.82779 9.991C9.42892 9.85569 9.97234 9.53494 10.3813 9.07405H10.5838C11.0583 9.07432 11.525 8.95324 11.9395 8.72233C12.354 8.49143 12.7026 8.15835 12.9521 7.75477C13.2016 7.35118 13.3438 6.89049 13.3651 6.41648C13.3864 5.94247 13.2861 5.47089 13.0738 5.04655L13.0888 5.05405Z" fill="#F1A11E"/>
<path d="M15.9227 4.62742C15.8232 4.62742 15.7279 4.58792 15.6575 4.51759C15.5872 4.44726 15.5477 4.35188 15.5477 4.25243V3.43492C15.5383 3.22578 15.6109 3.02124 15.7502 2.86493L16.1627 2.45243C16.2366 2.38395 16.3339 2.34646 16.4346 2.34769C16.5354 2.34892 16.6318 2.38877 16.704 2.45903C16.7761 2.52929 16.8186 2.62459 16.8225 2.72524C16.8265 2.8259 16.7916 2.92422 16.7252 2.99993L16.3127 3.41243V4.25243C16.3127 4.30296 16.3026 4.35298 16.2828 4.39948C16.263 4.44599 16.234 4.48801 16.1976 4.52304C16.1612 4.55806 16.1181 4.58536 16.0708 4.6033C16.0236 4.62124 15.9732 4.62945 15.9227 4.62742Z" fill="#F59F00"/>
<path d="M18.2562 2.53482C18.1794 2.49088 18.0884 2.47884 18.0029 2.50128C17.9173 2.52372 17.844 2.57886 17.7987 2.65482L17.5287 3.10482C17.5148 3.13038 17.4942 3.15162 17.4691 3.16618C17.4439 3.18074 17.4152 3.18806 17.3862 3.18732H17.3112L16.6437 2.99982C16.5055 2.98015 16.3647 2.99085 16.2311 3.03116C16.0974 3.07148 15.9742 3.14045 15.87 3.23327C15.7657 3.32609 15.683 3.44052 15.6275 3.56859C15.572 3.69666 15.5451 3.83529 15.5487 3.97482V5.75232C15.5487 5.93532 15.476 6.11083 15.3466 6.24023C15.2172 6.36963 15.0417 6.44232 14.8587 6.44232H12.4512V8.04732H14.8587C15.4667 8.04535 16.0493 7.80292 16.4793 7.37295C16.9093 6.94298 17.1517 6.36039 17.1537 5.75232V3.97482H17.3862C17.529 3.97544 17.6694 3.93831 17.7932 3.86719C17.917 3.79606 18.0198 3.69348 18.0912 3.56982L18.3687 2.99982C18.4137 2.92281 18.4271 2.83135 18.4061 2.74466C18.3851 2.65796 18.3314 2.58276 18.2562 2.53482Z" fill="#FFC83D"/>
<path d="M12.451 6.44141L12.961 7.27391C13.1548 7.53138 13.2646 7.84233 13.2753 8.16443C13.286 8.48652 13.1972 8.8041 13.021 9.07391C12.9139 9.22396 12.8658 9.40818 12.886 9.59141C12.9392 10.2042 12.982 10.8012 13.0015 11.3389H15.6835C17.4519 11.3757 19.2058 11.0116 20.8135 10.2739C20.99 10.1846 21.1864 10.1417 21.384 10.1495C21.5817 10.1572 21.7741 10.2153 21.9431 10.3182C22.1121 10.421 22.252 10.5653 22.3496 10.7374C22.4472 10.9095 22.4993 11.1036 22.501 11.3014V11.6119L20.8135 15.3334C20.8135 17.9419 7.69597 20.9719 6.43597 22.4989C6.17138 22.4989 5.9094 22.4467 5.66504 22.3452C5.42069 22.2437 5.19877 22.095 5.01203 21.9075C4.82528 21.7201 4.67739 21.4976 4.57682 21.2529C4.47625 21.0082 4.42498 20.746 4.42597 20.4814C4.42177 20.1757 4.4871 19.873 4.61703 19.5963C4.74696 19.3196 4.93809 19.076 5.17597 18.8839C5.87112 18.3567 6.43563 17.6766 6.82579 16.8963C7.21596 16.116 7.42132 15.2563 7.42597 14.3839V13.9189C7.42587 13.4179 7.57163 12.9277 7.84546 12.5082C8.11928 12.0887 8.50932 11.758 8.96797 11.5564C8.84797 10.2897 8.60797 9.03641 8.25097 7.81391C8.2118 7.65408 8.20868 7.48753 8.24183 7.32634C8.27499 7.16516 8.3436 7.01337 8.44268 6.88198C8.54176 6.75059 8.66883 6.64289 8.81469 6.56669C8.96055 6.49048 9.12153 6.44769 9.28597 6.44141H12.451Z" fill="#F8312F"/>
<path d="M21.8173 10.9785C21.6396 10.9918 21.4735 11.0719 21.3524 11.2027C21.2314 11.3335 21.1643 11.5053 21.1648 11.6835V12.3585C21.1648 12.6596 21.0458 12.9484 20.8336 13.162C20.6214 13.3756 20.3334 13.4965 20.0323 13.4985H19.8148C19.5536 13.4965 19.3021 13.5979 19.1152 13.7805C18.9284 13.9632 18.8213 14.2123 18.8173 14.4735C18.8183 14.6219 18.79 14.769 18.7339 14.9063C18.6778 15.0437 18.5951 15.1686 18.4905 15.2739C18.3859 15.3791 18.2616 15.4627 18.1246 15.5197C17.9876 15.5767 17.8407 15.606 17.6923 15.606H16.8748C16.7275 15.605 16.5813 15.6332 16.4449 15.6889C16.3084 15.7446 16.1844 15.8268 16.0798 15.9307C15.9752 16.0345 15.8922 16.1581 15.8356 16.2941C15.779 16.4302 15.7498 16.5761 15.7498 16.7235C15.7479 17.0233 15.6279 17.3102 15.416 17.5221C15.204 17.7341 14.9171 17.854 14.6173 17.856H13.1173C12.8223 17.856 12.5391 17.9727 12.3298 18.1807C12.1204 18.3886 12.0018 18.6709 11.9998 18.966C11.9999 19.2651 11.8816 19.552 11.6708 19.7642C11.46 19.9763 11.1739 20.0965 10.8748 20.0985H6.37484C6.05062 20.0985 5.73967 20.2273 5.51041 20.4566C5.28114 20.6858 5.15234 20.9968 5.15234 21.321C5.15526 21.4793 5.18945 21.6354 5.25295 21.7803C5.31644 21.9253 5.40799 22.0563 5.52231 22.1657C5.63664 22.2752 5.77148 22.3609 5.91908 22.418C6.06669 22.4751 6.22413 22.5025 6.38234 22.4985H13.7923C14.0921 22.4965 14.379 22.3766 14.591 22.1646C14.8029 21.9527 14.9229 21.6658 14.9248 21.366C14.9248 21.0696 15.0426 20.7854 15.2522 20.5758C15.4617 20.3663 15.746 20.2485 16.0423 20.2485H17.5423C17.8421 20.2465 18.129 20.1266 18.341 19.9146C18.5529 19.7027 18.6729 19.4158 18.6748 19.116C18.6941 18.8103 18.8302 18.5237 19.055 18.3157C19.2798 18.1076 19.5761 17.9941 19.8823 17.9985H20.6998C21.1926 17.9696 21.655 17.7512 21.9905 17.3892C22.3259 17.0272 22.5084 16.5495 22.4998 16.056V11.661C22.4979 11.4806 22.4254 11.3081 22.2978 11.1806C22.1702 11.053 21.9977 10.9805 21.8173 10.9785Z" fill="#990838"/>
<path d="M15.4071 17.5339C15.6184 17.3282 15.7418 17.0486 15.7513 16.7539L17.7066 21.5464L15.7956 21.0274L14.1681 17.8564H14.6181C14.9129 17.855 15.1957 17.7394 15.4071 17.5339ZM7.42633 21.0814L7.81633 20.0989H9.64633L9.07633 21.1774H7.39258C7.40224 21.1449 7.4135 21.1128 7.42633 21.0814Z" fill="#ED9200"/>
<path d="M15.6955 20.8359L17.6463 21.4037L18.0933 22.4987H17.5833C17.2745 22.4977 16.9717 22.4127 16.7075 22.2529C16.4433 22.093 16.2275 21.8643 16.0833 21.5912L15.6955 20.8359ZM9.16905 20.9987H7.45755L7.42455 21.0812C7.36046 21.2374 7.33586 21.407 7.35291 21.575C7.36996 21.7429 7.42814 21.9041 7.52231 22.0443C7.61648 22.1844 7.74373 22.2992 7.89281 22.3784C8.04189 22.4577 8.20821 22.499 8.37705 22.4987L9.16905 20.9987Z" fill="#F8312F"/>
<path d="M9.83203 6.44141L11.2495 7.70891C11.288 7.74332 11.3355 7.766 11.3864 7.77425C11.4374 7.7825 11.4896 7.77598 11.537 7.75546C11.5843 7.73495 11.6248 7.70129 11.6536 7.65848C11.6824 7.61567 11.6984 7.5655 11.6995 7.51391V6.44141H9.83203Z" fill="#FCB100"/>
<path d="M8.75886 4.07602H8.76336L8.75961 3.98077L8.75586 3.87052C8.76336 3.53002 8.96136 3.39802 9.04536 3.35302C9.05171 3.35078 9.05796 3.34828 9.06411 3.34552C9.16416 3.30314 9.25488 3.24145 9.33106 3.16398C9.40725 3.08651 9.46741 2.99477 9.50811 2.89402L9.53736 2.82502C9.54362 2.80912 9.55411 2.79524 9.56769 2.78486C9.58127 2.77449 9.59743 2.76803 9.61442 2.76618C9.63141 2.76432 9.64858 2.76715 9.66408 2.77435C9.67958 2.78155 9.69282 2.79285 9.70236 2.80702C9.82915 2.9926 9.99934 3.14439 10.1981 3.24922C10.397 3.35405 10.6184 3.40873 10.8431 3.40852H11.9951C12.0611 3.40852 12.3986 3.44152 12.4024 3.92227L12.3986 4.07602L12.3641 4.92502C12.3199 5.92702 11.5361 6.60052 10.5791 6.60052C9.62211 6.60052 8.83761 5.92702 8.79411 4.92502L8.75886 4.07602Z" fill="#FFC83D"/>
<path d="M9.90088 4.14439C9.98184 4.19543 10.0488 4.26579 10.0959 4.34914L9.79513 4.44289C9.65863 4.48564 9.52588 4.52764 9.39013 4.56664L9.22513 4.40914C9.20788 4.39507 9.19397 4.37734 9.18442 4.35724C9.17488 4.33713 9.16992 4.31515 9.16992 4.29289C9.16992 4.27063 9.17488 4.24865 9.18442 4.22854C9.19397 4.20844 9.20788 4.19071 9.22513 4.17664C9.34584 4.09867 9.48642 4.05701 9.63013 4.05664C9.72603 4.06297 9.81883 4.09313 9.90013 4.14439H9.90088ZM11.2149 4.14589C11.1339 4.19679 11.0665 4.26653 11.0184 4.34914C11.2509 4.42414 11.4909 4.49914 11.7159 4.56664L11.8884 4.40914C11.9129 4.38698 11.9297 4.3576 11.9365 4.32525C11.9432 4.2929 11.9395 4.25925 11.9259 4.22914C11.9172 4.20922 11.9044 4.19134 11.8884 4.17664C11.7677 4.09867 11.6271 4.05701 11.4834 4.05664C11.388 4.06427 11.2959 4.09489 11.2149 4.14589Z" fill="black"/>
<path d="M9.38592 4.19244C9.47276 4.12459 9.57948 4.08717 9.68967 4.08594C9.80655 4.08607 9.91961 4.12756 10.0088 4.20306C10.0981 4.27856 10.1577 4.38319 10.1772 4.49844C10.1772 4.52032 10.1685 4.5413 10.153 4.55677C10.1375 4.57225 10.1166 4.58094 10.0947 4.58094H9.30717C9.29223 4.58134 9.2774 4.57831 9.26382 4.57207C9.25025 4.56583 9.23828 4.55655 9.22886 4.54496C9.21944 4.53336 9.21281 4.51975 9.20948 4.50518C9.20615 4.49061 9.20622 4.47548 9.20967 4.46094C9.23767 4.35446 9.29985 4.26013 9.38667 4.19244H9.38592ZM11.7259 4.19244C11.6391 4.12459 11.5324 4.08717 11.4222 4.08594C11.3053 4.08607 11.1922 4.12756 11.103 4.20306C11.0138 4.27856 10.9542 4.38319 10.9347 4.49844C10.9347 4.50927 10.9368 4.52 10.941 4.53001C10.9451 4.54002 10.9512 4.54911 10.9588 4.55677C10.9665 4.56443 10.9756 4.57051 10.9856 4.57466C10.9956 4.5788 11.0063 4.58094 11.0172 4.58094H11.8047C11.8196 4.58134 11.8344 4.57831 11.848 4.57207C11.8616 4.56583 11.8736 4.55655 11.883 4.54496C11.8924 4.53336 11.899 4.51975 11.9024 4.50518C11.9057 4.49061 11.9056 4.47548 11.9022 4.46094C11.8742 4.35446 11.812 4.26013 11.7252 4.19244H11.7259Z" fill="white"/>
<path d="M9.53736 4.28109C9.59318 4.22242 9.66946 4.1875 9.75036 4.18359C9.8339 4.18359 9.91402 4.21678 9.9731 4.27586C10.0322 4.33493 10.0654 4.41505 10.0654 4.49859C10.0695 4.52594 10.0695 4.55375 10.0654 4.58109H9.45036C9.44624 4.55375 9.44624 4.52594 9.45036 4.49859C9.45032 4.41761 9.48147 4.33971 9.53736 4.28109ZM11.5699 4.27584C11.511 4.21695 11.4311 4.18379 11.3479 4.18359C11.2669 4.18745 11.1906 4.22233 11.1348 4.281C11.0789 4.33966 11.0478 4.41759 11.0479 4.49859C11.0438 4.52594 11.0438 4.55374 11.0479 4.58109H11.6629C11.667 4.55375 11.667 4.52594 11.6629 4.49859C11.6629 4.45723 11.6547 4.41626 11.6389 4.37804C11.6231 4.33982 11.5999 4.3051 11.5706 4.27584H11.5699Z" fill="#7D4533"/>
<path d="M9.89336 4.3713C9.91006 4.38806 9.9233 4.40795 9.9323 4.42983C9.94131 4.4517 9.94592 4.47514 9.94586 4.4988C9.94009 4.53041 9.92431 4.55933 9.90086 4.5813H9.58586C9.57815 4.55434 9.57815 4.52576 9.58586 4.4988C9.58577 4.46314 9.59628 4.42825 9.61606 4.39857C9.63583 4.36889 9.66397 4.34575 9.69692 4.33209C9.72986 4.31843 9.76612 4.31486 9.8011 4.32184C9.83607 4.32882 9.86819 4.34604 9.89336 4.3713ZM11.1819 4.4298C11.1729 4.45169 11.1683 4.47514 11.1684 4.4988C11.1741 4.53041 11.1899 4.55933 11.2134 4.5813H11.5284C11.5361 4.55434 11.5361 4.52576 11.5284 4.4988C11.5284 4.46917 11.5211 4.43998 11.5072 4.41384C11.4932 4.38769 11.473 4.36539 11.4484 4.34892C11.4238 4.33245 11.3955 4.32231 11.366 4.31942C11.3365 4.31652 11.3067 4.32094 11.2794 4.3323C11.2575 4.34135 11.2376 4.35462 11.2209 4.37135C11.2042 4.38808 11.1909 4.40794 11.1819 4.4298Z" fill="black"/>
<path d="M9.71961 4.37836C9.71961 4.39427 9.71329 4.40953 9.70204 4.42079C9.69078 4.43204 9.67552 4.43836 9.65961 4.43836C9.6437 4.43836 9.62843 4.43204 9.61718 4.42079C9.60593 4.40953 9.59961 4.39427 9.59961 4.37836C9.59961 4.36245 9.60593 4.34719 9.61718 4.33593C9.62843 4.32468 9.6437 4.31836 9.65961 4.31836C9.67552 4.31836 9.69078 4.32468 9.70204 4.33593C9.71329 4.34719 9.71961 4.36245 9.71961 4.37836ZM11.3021 4.37836C11.3021 4.39427 11.2958 4.40953 11.2845 4.42079C11.2733 4.43204 11.258 4.43836 11.2421 4.43836C11.2262 4.43836 11.2109 4.43204 11.1997 4.42079C11.1884 4.40953 11.1821 4.39427 11.1821 4.37836C11.1821 4.36245 11.1884 4.34719 11.1997 4.33593C11.2109 4.32468 11.2262 4.31836 11.2421 4.31836C11.258 4.31836 11.2733 4.32468 11.2845 4.33593C11.2958 4.34719 11.3021 4.36245 11.3021 4.37836Z" fill="white"/>
<path d="M10.552 5.57108C10.3773 5.57232 10.2048 5.53114 10.0495 5.45108C10.0396 5.44113 10.0261 5.43555 10.012 5.43555C9.99795 5.43555 9.98446 5.44113 9.97452 5.45108C9.96457 5.46103 9.95898 5.47451 9.95898 5.48858C9.95898 5.50265 9.96457 5.51613 9.97452 5.52608C10.0373 5.62202 10.1229 5.70082 10.2237 5.75536C10.3246 5.8099 10.4374 5.83846 10.552 5.83846C10.6667 5.83846 10.7795 5.8099 10.8803 5.75536C10.9811 5.70082 11.0668 5.62202 11.1295 5.52608C11.137 5.51874 11.1421 5.50931 11.1442 5.49903C11.1463 5.48874 11.1453 5.47807 11.1412 5.46838C11.1372 5.45869 11.1304 5.45044 11.1216 5.44468C11.1128 5.43892 11.1025 5.43593 11.092 5.43608C11.0851 5.43598 11.0782 5.43725 11.0718 5.43983C11.0653 5.4424 11.0595 5.44623 11.0545 5.45108C10.8986 5.52952 10.7266 5.5706 10.552 5.57108Z" fill="#990839"/>
<path d="M10.4258 4.42461L10.2458 5.00211C10.2378 5.02946 10.2362 5.05827 10.241 5.08635C10.2458 5.11444 10.2569 5.14106 10.2735 5.16419C10.2902 5.18733 10.3118 5.20637 10.3369 5.21987C10.362 5.23337 10.3899 5.24098 10.4183 5.24211H10.6883C10.7168 5.24098 10.7446 5.23337 10.7697 5.21987C10.7948 5.20637 10.8165 5.18733 10.8331 5.16419C10.8497 5.14106 10.8609 5.11444 10.8657 5.08635C10.8705 5.05827 10.8688 5.02946 10.8608 5.00211L10.6808 4.42461C10.6716 4.39814 10.6544 4.37519 10.6315 4.35895C10.6087 4.34271 10.5814 4.33398 10.5533 4.33398C10.5253 4.33398 10.498 4.34271 10.4751 4.35895C10.4523 4.37519 10.435 4.39814 10.4258 4.42461Z" fill="#ED9200"/>
<path d="M11.7526 3.89113H11.8051C11.83 3.89585 11.8557 3.89259 11.8786 3.88181C11.9015 3.87104 11.9204 3.8533 11.9326 3.83113C11.9404 3.81853 11.9453 3.80443 11.9472 3.78977C11.9492 3.77512 11.9479 3.76022 11.9437 3.74606C11.9395 3.7319 11.9323 3.7188 11.9226 3.70761C11.9129 3.69642 11.901 3.68739 11.8876 3.68113C11.6784 3.57035 11.4388 3.53085 11.2051 3.56863C11.1766 3.57411 11.1512 3.59046 11.1344 3.61423C11.1176 3.63801 11.1107 3.66736 11.1151 3.69613C11.1223 3.7253 11.1401 3.75074 11.1651 3.7674C11.1901 3.78406 11.2204 3.79075 11.2501 3.78613C11.4243 3.7716 11.5989 3.80809 11.7526 3.89113ZM9.24388 3.87388C9.26091 3.88421 9.28024 3.89013 9.30013 3.89113L9.35263 3.87613C9.51642 3.79138 9.70259 3.75991 9.88513 3.78613C9.9139 3.79053 9.94325 3.78361 9.96702 3.76683C9.9908 3.75005 10.0071 3.72471 10.0126 3.69613C10.0172 3.68229 10.0186 3.66761 10.0167 3.65316C10.0149 3.63872 10.0098 3.62487 10.0019 3.61264C9.99398 3.60041 9.98342 3.5901 9.971 3.58249C9.95859 3.57487 9.94462 3.57014 9.93013 3.56863C9.69402 3.53242 9.45251 3.5718 9.24013 3.68113C9.2237 3.69145 9.21023 3.70585 9.20101 3.72292C9.19179 3.74 9.18714 3.75916 9.18752 3.77856C9.1879 3.79796 9.19329 3.81693 9.20316 3.83363C9.21304 3.85034 9.22706 3.8642 9.24388 3.87388Z" fill="#D37034"/>
<path d="M5.00227 11.5338L5.38477 11.3613V12.1113C5.38637 12.1962 5.42141 12.2771 5.48227 12.3363L5.81227 12.6738C5.87467 12.7448 5.90771 12.8369 5.90467 12.9314C5.90163 13.0259 5.86274 13.1156 5.79591 13.1825C5.72907 13.2493 5.63929 13.2882 5.54482 13.2912C5.45035 13.2943 5.35826 13.2612 5.28727 13.1988L4.94977 12.8688C4.74966 12.6704 4.63639 12.4007 4.63477 12.1188V11.6688C4.76377 11.6441 4.88752 11.5983 5.00227 11.5338Z" fill="#F59F00"/>
<path d="M9.51797 7.16197C9.47226 7.06685 9.40824 6.98167 9.32957 6.91132C9.2509 6.84098 9.15913 6.78684 9.05951 6.752C8.95989 6.71717 8.85437 6.70233 8.74901 6.70833C8.64364 6.71433 8.54049 6.74106 8.44547 6.78697L6.07547 7.93447C5.66282 8.19665 5.32328 8.55907 5.08853 8.98791C4.85378 9.41676 4.73145 9.89808 4.73297 10.387V11.2495C4.73649 11.2843 4.733 11.3196 4.72269 11.353C4.71239 11.3865 4.69548 11.4176 4.67297 11.4445L4.44047 11.722C4.30541 11.8929 4.23148 12.1041 4.23047 12.322V12.997C4.2303 13.0488 4.2409 13.1002 4.2616 13.1478C4.28229 13.1953 4.31263 13.2381 4.35069 13.2733C4.38875 13.3086 4.43372 13.3355 4.48274 13.3525C4.53175 13.3695 4.58376 13.3761 4.63547 13.372C4.73163 13.3644 4.82138 13.3208 4.88675 13.2499C4.95211 13.1789 4.98827 13.0859 4.98797 12.9895V12.3595C4.98742 12.2864 5.01116 12.2151 5.05547 12.157C5.07546 12.1188 5.10309 12.0851 5.13663 12.058C5.17017 12.0309 5.20892 12.011 5.25047 11.9995C5.28263 11.9995 5.31446 12.0059 5.34408 12.0184C5.3737 12.031 5.4005 12.0493 5.42288 12.0724C5.44527 12.0955 5.46279 12.1228 5.4744 12.1528C5.48601 12.1828 5.49148 12.2148 5.49047 12.247V12.427C5.48907 12.5197 5.52077 12.6099 5.57987 12.6814C5.63898 12.7529 5.72162 12.8009 5.81297 12.817C5.86643 12.8245 5.9209 12.8205 5.97264 12.805C6.02439 12.7896 6.07219 12.7632 6.11278 12.7276C6.15337 12.692 6.18579 12.648 6.20783 12.5987C6.22987 12.5494 6.241 12.496 6.24047 12.442V10.4095C6.23448 10.1975 6.28306 9.98752 6.38156 9.79971C6.48006 9.61191 6.62517 9.45256 6.80297 9.33697L9.05297 8.23447C9.15599 8.19736 9.25033 8.13955 9.33017 8.06461C9.41001 7.98966 9.47367 7.89917 9.51723 7.79871C9.56079 7.69824 9.58332 7.58992 9.58345 7.48042C9.58358 7.37091 9.5613 7.26254 9.51797 7.16197Z" fill="#FFC83D"/>
<path d="M12.9459 2.1223C12.8742 2.10752 12.8001 2.10858 12.7289 2.12543C12.6576 2.14227 12.5909 2.17448 12.5334 2.2198C12.5216 2.14903 12.4939 2.08187 12.4523 2.0234C12.4107 1.96493 12.3564 1.91668 12.2934 1.8823C12.1826 1.82589 12.0542 1.8147 11.9353 1.85107C11.8164 1.88745 11.7162 1.96855 11.6559 2.0773C11.6263 2.14201 11.6109 2.21236 11.6109 2.28355C11.6109 2.35473 11.6263 2.42508 11.6559 2.4898C11.5867 2.48293 11.5167 2.49222 11.4517 2.51695C11.3866 2.54167 11.3282 2.58116 11.2809 2.6323C11.225 2.68674 11.1838 2.75438 11.1609 2.82899C11.1381 2.90359 11.1345 2.98274 11.1503 3.05913C11.1661 3.13553 11.201 3.20669 11.2516 3.26606C11.3022 3.32543 11.367 3.37108 11.4399 3.3988C11.4993 3.42087 11.5626 3.43057 11.6259 3.4273C11.6022 3.48302 11.5899 3.54297 11.5899 3.60355C11.5899 3.66412 11.6022 3.72408 11.6259 3.7798C11.6544 3.83507 11.6934 3.88417 11.7409 3.92429C11.7884 3.96441 11.8433 3.99475 11.9026 4.01356C11.9618 4.03238 12.0242 4.03931 12.0861 4.03394C12.148 4.02858 12.2083 4.01102 12.2634 3.9823C12.3751 3.94037 12.4664 3.85714 12.5184 3.7498C12.6141 3.81108 12.728 3.83756 12.8409 3.8248C12.9652 3.80978 13.0784 3.74606 13.1558 3.64763C13.2331 3.5492 13.2682 3.4241 13.2534 3.2998C13.2386 3.18245 13.1796 3.07517 13.0884 2.9998C13.1927 2.93212 13.2676 2.8277 13.2984 2.7073C13.3151 2.64571 13.3191 2.58139 13.3102 2.51821C13.3014 2.45503 13.2798 2.39429 13.2469 2.33964C13.214 2.285 13.1703 2.23758 13.1186 2.20023C13.0669 2.16288 13.0082 2.13637 12.9459 2.1223Z" fill="#F92F60"/>
<path d="M12.6611 2.43726C12.6198 2.4264 12.5765 2.4255 12.5348 2.43463C12.4931 2.44375 12.4541 2.46265 12.4211 2.48975C12.4111 2.43735 12.3869 2.38868 12.3512 2.34902C12.3155 2.30936 12.2697 2.28022 12.2186 2.26476C12.1674 2.25354 12.1141 2.25595 12.0641 2.27174C12.0141 2.28753 11.9691 2.31615 11.9336 2.35476C11.9 2.39472 11.8781 2.44313 11.8702 2.49471C11.8622 2.54629 11.8686 2.59905 11.8886 2.64726C11.8398 2.64482 11.7912 2.65533 11.7477 2.67772C11.7042 2.70011 11.6675 2.73358 11.6411 2.77476C11.6177 2.80707 11.6018 2.84416 11.5945 2.88336C11.5871 2.92256 11.5886 2.9629 11.5987 3.00148C11.6088 3.04007 11.6273 3.07593 11.6529 3.10649C11.6786 3.13706 11.7106 3.16156 11.7469 3.17825C11.7885 3.19904 11.8345 3.20982 11.8811 3.20976C11.8695 3.25342 11.8682 3.29918 11.8773 3.34344C11.8864 3.38769 11.9057 3.42922 11.9336 3.46475C11.9652 3.50186 12.0058 3.53024 12.0515 3.54719C12.0972 3.56414 12.1464 3.56909 12.1946 3.56157C12.2427 3.55404 12.2882 3.5343 12.3265 3.50422C12.3648 3.47414 12.3948 3.43473 12.4136 3.38976C12.4508 3.41409 12.4931 3.42962 12.5373 3.43516C12.5814 3.44069 12.6262 3.43609 12.6683 3.4217C12.7104 3.40731 12.7486 3.38351 12.7801 3.35211C12.8116 3.32071 12.8356 3.28254 12.8501 3.24051C12.8606 3.20087 12.8601 3.15912 12.8486 3.11975C12.8378 3.05244 12.8032 2.99124 12.7511 2.94726C12.8121 2.90427 12.8549 2.84009 12.8711 2.76726C12.8799 2.73175 12.8814 2.69483 12.8755 2.65873C12.8697 2.62263 12.8565 2.5881 12.8368 2.55724C12.8172 2.52637 12.7915 2.49983 12.7613 2.4792C12.7311 2.45858 12.697 2.44431 12.6611 2.43726Z" fill="#CA0B4A"/>
</svg>
