<svg xmlns="http://www.w3.org/2000/svg" width="400" height="400" viewBox="0 0 400 400">
  <!-- Palm 35 · Hatch -->
  <g fill="#111111">
    <path d="M203.1 141.6 L108.0 116.0 L196.9 158.4 Z"/>
    <path d="M207.5 145.0 L150.0 76.0 L192.5 155.0 Z"/>
    <path d="M209.0 150.0 L200.0 56.0 L191.0 150.0 Z"/>
    <path d="M207.5 155.0 L250.0 76.0 L192.5 145.0 Z"/>
    <path d="M203.1 158.4 L292.0 116.0 L196.9 141.6 Z"/>
  </g>
  <g stroke="#111111" stroke-width="5" stroke-linecap="round">
    <line x1="188" y1="170" x2="212" y2="180"/>
    <line x1="188" y1="186" x2="212" y2="196"/>
    <line x1="188" y1="202" x2="212" y2="212"/>
    <line x1="188" y1="218" x2="212" y2="228"/>
    <line x1="188" y1="234" x2="212" y2="244"/>
    <line x1="188" y1="250" x2="212" y2="260"/>
    <line x1="188" y1="266" x2="212" y2="276"/>
    <line x1="188" y1="282" x2="212" y2="292"/>
  </g>
</svg>
